<?xml version="1.0" standalone="no"?>
<!DOCTYPE svg PUBLIC "-//W3C//DTD SVG 20010904//EN"
 "http://www.w3.org/TR/2001/REC-SVG-20010904/DTD/svg10.dtd">
<svg version="1.0" xmlns="http://www.w3.org/2000/svg"
 width="1024.000000pt" height="49.000000pt" viewBox="0 0 1024.000000 49.000000"
 preserveAspectRatio="xMidYMid meet">

<g transform="translate(0.000000,49.000000) scale(0.100000,-0.100000)"
fill="#000000" stroke="none">
<path d="M80 285 l0 -125 5040 0 5040 0 0 125 0 125 -5040 0 -5040 0 0 -125z
m10050 0 l0 -95 -5010 0 -5010 0 0 95 0 95 5010 0 5010 0 0 -95z"/>
<path d="M7440 310 l0 -60 48 2 c43 1 44 2 10 5 -32 4 -38 8 -38 28 0 19 6 24
33 28 l32 4 -32 1 c-25 2 -33 7 -33 21 0 15 8 21 38 24 34 3 33 4 -10 5 l-48
2 0 -60z"/>
<path d="M7943 310 c0 -36 2 -50 4 -32 2 17 2 47 0 65 -2 17 -4 3 -4 -33z"/>
<path d="M8160 350 c0 -13 -5 -18 -15 -14 -21 8 -45 -14 -45 -41 0 -28 19 -45
48 -42 20 1 22 7 22 59 0 32 -2 58 -5 58 -3 0 -5 -9 -5 -20z m-5 -56 c0 -32
-21 -39 -38 -12 -8 12 -7 21 3 32 19 24 35 14 35 -20z"/>
<path d="M8338 363 c19 -4 22 -11 24 -61 l1 -57 6 54 c5 42 11 56 26 62 13 5
4 7 -30 7 -27 0 -40 -3 -27 -5z"/>
<path d="M8786 314 c-10 -31 -15 -59 -11 -62 3 -3 8 4 12 16 7 29 49 30 58 2
3 -11 10 -20 14 -20 5 0 -1 27 -13 60 -12 33 -26 60 -32 60 -6 0 -18 -25 -28
-56z m44 -1 c0 -7 -7 -13 -16 -13 -11 0 -14 5 -10 16 3 9 6 21 6 27 0 16 20
-14 20 -30z"/>
<path d="M8883 310 c0 -36 2 -50 4 -32 2 17 2 47 0 65 -2 17 -4 3 -4 -33z"/>
<path d="M9043 310 c-1 -55 0 -59 7 -27 4 20 10 40 13 43 13 13 27 -9 27 -42
0 -19 5 -34 10 -34 12 0 13 60 1 79 -5 8 -18 12 -29 9 -16 -4 -22 0 -25 16 -2
11 -4 -8 -4 -44z"/>
<path d="M9270 350 c0 -13 -5 -18 -15 -14 -21 8 -45 -14 -45 -41 0 -28 19 -45
48 -42 20 1 22 7 22 59 0 32 -2 58 -5 58 -3 0 -5 -9 -5 -20z m-5 -56 c0 -32
-21 -39 -38 -12 -8 12 -7 21 3 32 19 24 35 14 35 -20z"/>
<path d="M9452 310 c-11 -33 -17 -60 -13 -60 5 0 11 9 14 20 3 12 14 20 27 20
13 0 24 -8 27 -20 3 -11 10 -20 15 -20 5 0 6 10 2 23 -21 67 -32 91 -41 94 -6
2 -20 -23 -31 -57z m41 10 c4 -15 0 -20 -13 -20 -13 0 -17 5 -13 20 3 11 9 20
13 20 4 0 10 -9 13 -20z"/>
<path d="M9640 310 c0 -59 0 -60 28 -60 16 0 36 8 45 18 37 41 9 102 -46 102
-26 0 -27 -2 -27 -60z m58 38 c7 -7 12 -24 12 -38 0 -30 -17 -50 -42 -50 -15
0 -18 9 -18 50 0 41 3 50 18 50 10 0 23 -5 30 -12z"/>
<path d="M8598 350 c-2 -6 -2 -31 0 -55 3 -34 8 -45 21 -44 10 0 11 2 4 6 -15
5 -18 70 -4 75 5 2 3 8 -4 15 -8 8 -15 8 -17 3z"/>
<path d="M9962 344 c-7 -8 -8 -14 -2 -14 5 0 10 -18 10 -40 0 -22 3 -40 8 -40
7 0 8 98 0 105 -1 2 -9 -3 -16 -11z"/>
<path d="M7554 319 c13 -19 13 -24 -1 -45 -8 -13 -11 -24 -5 -24 5 0 13 8 17
18 6 16 7 16 19 0 20 -27 31 -22 13 6 -14 21 -14 26 -1 45 8 11 11 21 6 21 -6
0 -13 -8 -17 -17 -6 -17 -7 -17 -19 0 -19 25 -30 21 -12 -4z"/>
<path d="M7628 314 c-9 -18 -9 -30 -1 -42 13 -21 55 -22 61 -2 4 13 3 13 -11
2 -9 -8 -21 -11 -27 -7 -20 12 -10 25 20 25 33 0 35 3 20 31 -15 27 -48 24
-62 -7z m50 -2 c2 -7 -6 -12 -17 -12 -21 0 -27 11 -14 24 9 9 26 2 31 -12z"/>
<path d="M7721 291 l2 -46 6 39 c8 55 31 60 31 7 0 -51 18 -54 22 -4 4 52 28
56 28 4 0 -23 5 -41 11 -41 6 0 9 17 7 43 l-3 42 -52 1 -53 1 1 -46z"/>
<path d="M7851 275 c1 -33 4 -50 6 -38 3 14 9 20 19 16 20 -7 44 15 44 42 0
28 -19 45 -48 42 -20 -1 -22 -6 -21 -62z m53 32 c8 -12 7 -21 -6 -33 -20 -20
-38 -11 -38 20 0 39 23 46 44 13z"/>
<path d="M7982 328 c-30 -30 -2 -86 38 -73 15 5 20 15 20 40 0 41 -32 59 -58
33z m43 -34 c0 -32 -21 -39 -38 -12 -8 12 -7 21 3 32 19 24 35 14 35 -20z"/>
<path d="M8198 314 c-9 -18 -9 -30 -1 -42 13 -21 55 -22 61 -2 4 13 3 13 -11
2 -9 -8 -21 -11 -27 -7 -20 12 -10 25 20 25 33 0 35 3 20 31 -15 27 -48 24
-62 -7z m50 -2 c2 -7 -6 -12 -17 -12 -21 0 -27 11 -14 24 9 9 26 2 31 -12z"/>
<path d="M8428 314 c-9 -18 -9 -30 -1 -42 13 -21 55 -22 61 -2 4 13 3 13 -11
2 -9 -8 -21 -11 -27 -7 -20 12 -10 25 20 25 33 0 35 3 20 31 -15 27 -48 24
-62 -7z m50 -2 c2 -7 -6 -12 -17 -12 -21 0 -27 11 -14 24 9 9 26 2 31 -12z"/>
<path d="M8524 319 c13 -19 13 -24 -1 -45 -8 -13 -11 -24 -5 -24 5 0 13 8 17
18 6 16 7 16 19 0 20 -27 31 -22 13 6 -14 21 -14 26 -1 45 8 11 11 21 6 21 -6
0 -13 -8 -17 -17 -6 -17 -7 -17 -19 0 -19 25 -30 21 -12 -4z"/>
<path d="M8639 319 c-8 -16 -8 -28 0 -45 18 -41 71 -25 71 21 0 44 -50 61 -71
24z m46 -25 c0 -19 -5 -29 -15 -29 -16 0 -25 28 -16 51 10 25 31 10 31 -22z"/>
<path d="M8923 295 c0 -27 2 -38 4 -22 2 15 2 37 0 50 -2 12 -4 0 -4 -28z"/>
<path d="M8951 291 c1 -42 2 -43 8 -15 16 65 41 74 41 14 0 -22 5 -40 11 -40
6 0 9 17 7 43 -3 40 -5 42 -35 43 -33 1 -33 1 -32 -45z"/>
<path d="M9137 334 c-14 -14 -7 -26 8 -14 12 10 19 10 27 2 8 -8 6 -13 -8 -18
-52 -19 -53 -54 0 -52 31 1 32 2 26 42 -4 31 -10 42 -25 44 -12 2 -24 0 -28
-4z m41 -56 c-7 -19 -38 -22 -38 -4 0 10 9 16 21 16 12 0 19 -5 17 -12z"/>
<path d="M9312 328 c-7 -7 -12 -21 -12 -33 0 -46 53 -62 71 -21 21 45 -26 87
-59 54z m46 -27 c5 -34 -16 -51 -33 -27 -10 14 -11 24 -4 38 13 24 33 18 37
-11z"/>
<path d="M9753 295 c0 -27 2 -38 4 -22 2 15 2 37 0 50 -2 12 -4 0 -4 -28z"/>
<path d="M9792 290 c1 -40 2 -41 5 -10 2 19 11 40 20 47 13 10 13 12 -6 10
-18 -1 -21 -7 -19 -47z"/>
<path d="M9840 314 c-19 -48 28 -87 60 -49 14 17 0 21 -17 4 -6 -6 -16 -8 -22
-5 -21 13 -11 26 19 26 31 0 39 17 18 38 -20 20 -48 14 -58 -14z m48 -2 c2 -7
-6 -12 -17 -12 -21 0 -27 11 -14 24 9 9 26 2 31 -12z"/>
<path d="M9933 295 c0 -27 2 -38 4 -22 2 15 2 37 0 50 -2 12 -4 0 -4 -28z"/>
<path d="M10017 334 c-14 -14 -7 -26 8 -14 12 10 19 10 27 2 8 -8 6 -13 -8
-18 -52 -19 -53 -54 0 -52 31 1 32 2 26 42 -4 31 -10 42 -25 44 -12 2 -24 0
-28 -4z m41 -56 c-7 -19 -38 -22 -38 -4 0 10 9 16 21 16 12 0 19 -5 17 -12z"/>
<path d="M10100 260 c0 -5 5 -10 11 -10 5 0 7 5 4 10 -3 6 -8 10 -11 10 -2 0
-4 -4 -4 -10z"/>
</g>
</svg>
