<?xml version="1.0" standalone="no"?>
<!DOCTYPE svg PUBLIC "-//W3C//DTD SVG 20010904//EN"
 "http://www.w3.org/TR/2001/REC-SVG-20010904/DTD/svg10.dtd">
<svg version="1.0" xmlns="http://www.w3.org/2000/svg"
 width="1024.000000pt" height="49.000000pt" viewBox="0 0 1024.000000 49.000000"
 preserveAspectRatio="xMidYMid meet">

<g transform="translate(0.000000,49.000000) scale(0.100000,-0.100000)"
fill="#000000" stroke="none">
<path d="M80 285 l0 -125 5040 0 5040 0 0 125 0 125 -5040 0 -5040 0 0 -125z
m10050 0 l0 -95 -5010 0 -5010 0 0 95 0 95 5010 0 5010 0 0 -95z"/>
<path d="M120 310 l0 -60 48 2 c43 1 44 2 10 5 -32 4 -38 8 -38 28 0 19 6 24
33 28 l32 4 -32 1 c-25 2 -33 7 -33 21 0 15 8 21 38 24 34 3 33 4 -10 5 l-48
2 0 -60z"/>
<path d="M623 310 c0 -36 2 -50 4 -32 2 17 2 47 0 65 -2 17 -4 3 -4 -33z"/>
<path d="M840 350 c0 -13 -5 -18 -15 -14 -21 8 -45 -14 -45 -41 0 -28 19 -45
48 -42 20 1 22 7 22 59 0 32 -2 58 -5 58 -3 0 -5 -9 -5 -20z m-5 -56 c0 -32
-21 -39 -38 -12 -8 12 -7 21 3 32 19 24 35 14 35 -20z"/>
<path d="M1018 363 c19 -4 22 -11 24 -61 l1 -57 6 54 c5 42 11 56 26 62 13 5
4 7 -30 7 -27 0 -40 -3 -27 -5z"/>
<path d="M1466 314 c-10 -31 -15 -59 -11 -62 3 -3 8 4 12 16 7 29 49 30 58 2
3 -11 10 -20 14 -20 5 0 -1 27 -13 60 -12 33 -26 60 -32 60 -6 0 -18 -25 -28
-56z m44 -1 c0 -7 -7 -13 -16 -13 -11 0 -14 5 -10 16 3 9 6 21 6 27 0 16 20
-14 20 -30z"/>
<path d="M1563 310 c0 -36 2 -50 4 -32 2 17 2 47 0 65 -2 17 -4 3 -4 -33z"/>
<path d="M1723 310 c-1 -55 0 -59 7 -27 4 20 10 40 13 43 13 13 27 -9 27 -42
0 -19 5 -34 10 -34 12 0 13 60 1 79 -5 8 -18 12 -29 9 -16 -4 -22 0 -25 16 -2
11 -4 -8 -4 -44z"/>
<path d="M1950 350 c0 -13 -5 -18 -15 -14 -21 8 -45 -14 -45 -41 0 -28 19 -45
48 -42 20 1 22 7 22 59 0 32 -2 58 -5 58 -3 0 -5 -9 -5 -20z m-5 -56 c0 -32
-21 -39 -38 -12 -8 12 -7 21 3 32 19 24 35 14 35 -20z"/>
<path d="M2132 310 c-11 -33 -17 -60 -13 -60 5 0 11 9 14 20 3 12 14 20 27 20
13 0 24 -8 27 -20 3 -11 10 -20 15 -20 5 0 6 10 2 23 -21 67 -32 91 -41 94 -6
2 -20 -23 -31 -57z m41 10 c4 -15 0 -20 -13 -20 -13 0 -17 5 -13 20 3 11 9 20
13 20 4 0 10 -9 13 -20z"/>
<path d="M2320 310 l0 -60 43 2 42 1 -37 4 c-32 4 -38 8 -38 28 0 20 6 24 38
28 l37 4 -37 1 c-30 2 -38 6 -38 21 0 15 8 21 38 24 l37 4 -42 1 -43 2 0 -60z"/>
<path d="M2880 351 c0 -14 -6 -17 -25 -13 -19 3 -27 -1 -34 -19 -14 -38 1 -64
38 -65 l31 -1 0 59 c0 32 -2 58 -5 58 -3 0 -5 -8 -5 -19z m-11 -40 c7 -13 6
-23 -3 -36 -16 -22 -36 -12 -36 19 0 39 22 49 39 17z"/>
<path d="M1278 350 c-2 -6 -2 -31 0 -55 3 -34 8 -45 21 -44 10 0 11 2 4 6 -15
5 -18 70 -4 75 5 2 3 8 -4 15 -8 8 -15 8 -17 3z"/>
<path d="M234 319 c13 -19 13 -24 -1 -45 -8 -13 -11 -24 -5 -24 5 0 13 8 17
18 6 16 7 16 19 0 20 -27 31 -22 13 6 -14 21 -14 26 -1 45 8 11 11 21 6 21 -6
0 -13 -8 -17 -17 -6 -17 -7 -17 -19 0 -19 25 -30 21 -12 -4z"/>
<path d="M308 314 c-9 -18 -9 -30 -1 -42 13 -21 55 -22 61 -2 4 13 3 13 -11 2
-9 -8 -21 -11 -27 -7 -20 12 -10 25 20 25 33 0 35 3 20 31 -15 27 -48 24 -62
-7z m50 -2 c2 -7 -6 -12 -17 -12 -21 0 -27 11 -14 24 9 9 26 2 31 -12z"/>
<path d="M401 291 l2 -46 6 39 c8 55 31 60 31 7 0 -51 18 -54 22 -4 4 52 28
56 28 4 0 -23 5 -41 11 -41 6 0 9 17 7 43 l-3 42 -52 1 -53 1 1 -46z"/>
<path d="M531 275 c1 -33 4 -50 6 -38 3 14 9 20 19 16 20 -7 44 15 44 42 0 28
-19 45 -48 42 -20 -1 -22 -6 -21 -62z m53 32 c8 -12 7 -21 -6 -33 -20 -20 -38
-11 -38 20 0 39 23 46 44 13z"/>
<path d="M662 328 c-30 -30 -2 -86 38 -73 15 5 20 15 20 40 0 41 -32 59 -58
33z m43 -34 c0 -32 -21 -39 -38 -12 -8 12 -7 21 3 32 19 24 35 14 35 -20z"/>
<path d="M878 314 c-9 -18 -9 -30 -1 -42 13 -21 55 -22 61 -2 4 13 3 13 -11 2
-9 -8 -21 -11 -27 -7 -20 12 -10 25 20 25 33 0 35 3 20 31 -15 27 -48 24 -62
-7z m50 -2 c2 -7 -6 -12 -17 -12 -21 0 -27 11 -14 24 9 9 26 2 31 -12z"/>
<path d="M1108 314 c-9 -18 -9 -30 -1 -42 13 -21 55 -22 61 -2 4 13 3 13 -11
2 -9 -8 -21 -11 -27 -7 -20 12 -10 25 20 25 33 0 35 3 20 31 -15 27 -48 24
-62 -7z m50 -2 c2 -7 -6 -12 -17 -12 -21 0 -27 11 -14 24 9 9 26 2 31 -12z"/>
<path d="M1204 319 c13 -19 13 -24 -1 -45 -8 -13 -11 -24 -5 -24 5 0 13 8 17
18 6 16 7 16 19 0 20 -27 31 -22 13 6 -14 21 -14 26 -1 45 8 11 11 21 6 21 -6
0 -13 -8 -17 -17 -6 -17 -7 -17 -19 0 -19 25 -30 21 -12 -4z"/>
<path d="M1319 319 c-8 -16 -8 -28 0 -45 18 -41 71 -25 71 21 0 44 -50 61 -71
24z m46 -25 c0 -19 -5 -29 -15 -29 -16 0 -25 28 -16 51 10 25 31 10 31 -22z"/>
<path d="M1603 295 c0 -27 2 -38 4 -22 2 15 2 37 0 50 -2 12 -4 0 -4 -28z"/>
<path d="M1631 291 c1 -42 2 -43 8 -15 16 65 41 74 41 14 0 -22 5 -40 11 -40
6 0 9 17 7 43 -3 40 -5 42 -35 43 -33 1 -33 1 -32 -45z"/>
<path d="M1817 334 c-14 -14 -7 -26 8 -14 12 10 19 10 27 2 8 -8 6 -13 -8 -18
-52 -19 -53 -54 0 -52 31 1 32 2 26 42 -4 31 -10 42 -25 44 -12 2 -24 0 -28
-4z m41 -56 c-7 -19 -38 -22 -38 -4 0 10 9 16 21 16 12 0 19 -5 17 -12z"/>
<path d="M1992 328 c-7 -7 -12 -21 -12 -33 0 -46 53 -62 71 -21 21 45 -26 87
-59 54z m46 -27 c5 -34 -16 -51 -33 -27 -10 14 -11 24 -4 38 13 24 33 18 37
-11z"/>
<path d="M2427 334 c-15 -15 -6 -35 20 -45 19 -7 23 -13 15 -21 -8 -8 -16 -7
-28 3 -15 12 -17 12 -12 -1 7 -21 52 -19 56 2 2 12 -6 21 -24 28 -20 8 -24 14
-16 22 8 8 16 7 28 -3 15 -12 17 -12 12 1 -5 16 -39 25 -51 14z"/>
<path d="M2501 318 c-12 -33 2 -63 30 -63 15 0 26 -7 31 -20 3 -11 6 7 7 40 1
61 1 61 -29 63 -24 2 -32 -3 -39 -20z m48 -7 c7 -13 6 -23 -3 -36 -16 -22 -36
-12 -36 19 0 39 22 49 39 17z"/>
<path d="M2594 300 c1 -43 2 -45 34 -48 32 -3 32 -3 32 42 0 55 -17 62 -22 9
-4 -53 -31 -51 -39 2 l-7 40 2 -45z"/>
<path d="M2680 314 c-19 -48 28 -87 60 -49 14 17 0 21 -17 4 -6 -6 -16 -8 -22
-5 -21 13 -11 26 19 26 31 0 39 17 18 38 -20 20 -48 14 -58 -14z m48 -2 c2 -7
-6 -12 -17 -12 -21 0 -27 11 -14 24 9 9 26 2 31 -12z"/>
<path d="M2771 290 c2 -34 3 -37 6 -15 3 17 12 38 20 47 14 15 13 17 -6 15
-18 -1 -21 -7 -20 -47z"/>
<path d="M2917 333 c-14 -13 -7 -25 8 -13 8 6 19 9 25 5 17 -11 11 -23 -12
-27 -15 -2 -23 -10 -23 -23 0 -16 7 -20 36 -21 34 -1 35 0 31 30 -3 17 -9 37
-14 44 -11 13 -40 16 -51 5z m43 -52 c0 -14 -18 -23 -30 -16 -6 4 -8 11 -5 16
8 12 35 12 35 0z"/>
<path d="M3000 260 c0 -5 5 -10 10 -10 6 0 10 5 10 10 0 6 -4 10 -10 10 -5 0
-10 -4 -10 -10z"/>
</g>
</svg>
