<?xml version="1.0" standalone="no"?>
<!DOCTYPE svg PUBLIC "-//W3C//DTD SVG 20010904//EN"
 "http://www.w3.org/TR/2001/REC-SVG-20010904/DTD/svg10.dtd">
<svg version="1.0" xmlns="http://www.w3.org/2000/svg"
 width="1024.000000pt" height="49.000000pt" viewBox="0 0 1024.000000 49.000000"
 preserveAspectRatio="xMidYMid meet">

<g transform="translate(0.000000,49.000000) scale(0.100000,-0.100000)"
fill="#000000" stroke="none">
<path d="M80 285 l0 -125 5040 0 5040 0 0 125 0 125 -5040 0 -5040 0 0 -125z
m10050 0 l0 -95 -5010 0 -5010 0 0 95 0 95 5010 0 5010 0 0 -95z"/>
<path d="M3760 310 l0 -60 43 1 42 2 -35 6 c-26 4 -35 11 -35 26 0 15 9 22 35
26 l35 6 -38 2 c-31 1 -38 4 -35 19 2 11 16 19 38 23 l35 6 -42 2 -43 1 0 -60z"/>
<path d="M4250 310 c0 -33 4 -60 10 -60 6 0 10 27 10 60 0 33 -4 60 -10 60 -6
0 -10 -27 -10 -60z"/>
<path d="M4480 351 c0 -14 -6 -17 -25 -13 -19 3 -27 -1 -34 -19 -14 -38 1 -64
38 -65 l31 -1 0 59 c0 32 -2 58 -5 58 -3 0 -5 -8 -5 -19z m-11 -40 c7 -13 6
-23 -3 -36 -16 -22 -36 -12 -36 19 0 39 22 49 39 17z"/>
<path d="M4653 363 c13 -4 17 -15 17 -59 0 -30 5 -54 10 -54 6 0 10 24 10 54
0 49 2 55 23 59 12 2 0 4 -28 4 -27 1 -42 -1 -32 -4z"/>
<path d="M5102 310 c-11 -33 -17 -60 -13 -60 5 0 11 9 14 20 3 12 14 20 27 20
13 0 24 -8 27 -20 3 -11 10 -20 15 -20 5 0 6 10 2 23 -21 67 -32 91 -41 94 -6
2 -20 -23 -31 -57z m41 10 c4 -15 0 -20 -13 -20 -13 0 -17 5 -13 20 3 11 9 20
13 20 4 0 10 -9 13 -20z"/>
<path d="M5190 310 c0 -33 4 -60 10 -60 6 0 10 27 10 60 0 33 -4 60 -10 60 -6
0 -10 -27 -10 -60z"/>
<path d="M5350 310 c0 -66 17 -83 22 -22 4 52 31 50 39 -3 l7 -40 -2 45 c-1
40 -4 45 -23 44 -16 0 -23 5 -23 18 0 10 -4 18 -10 18 -6 0 -10 -27 -10 -60z"/>
<path d="M5590 351 c0 -14 -6 -17 -25 -13 -19 3 -27 -1 -34 -19 -14 -38 1 -64
38 -65 l31 -1 0 59 c0 32 -2 58 -5 58 -3 0 -5 -8 -5 -19z m-11 -40 c7 -13 6
-23 -3 -36 -16 -22 -36 -12 -36 19 0 39 22 49 39 17z"/>
<path d="M5990 354 c-8 -8 -13 -28 -13 -44 0 -16 5 -36 13 -44 24 -30 80 -14
80 23 0 11 -6 9 -20 -7 -28 -30 -60 -14 -60 28 0 40 34 59 61 34 20 -18 27 -6
7 14 -17 17 -53 15 -68 -4z"/>
<path d="M4908 349 c-7 -20 6 -92 17 -96 8 -2 11 41 6 100 -1 11 -19 8 -23 -4z"/>
<path d="M6268 348 c-8 -24 8 -92 22 -96 12 -4 13 -2 3 9 -15 15 -17 66 -4 71
5 2 3 8 -4 15 -10 9 -15 9 -17 1z"/>
<path d="M3860 335 c0 -6 6 -17 12 -23 10 -10 10 -17 0 -33 -8 -12 -11 -23 -8
-26 3 -3 8 2 12 11 6 16 8 16 25 0 21 -19 27 -6 7 14 -10 10 -10 17 0 33 16
25 10 36 -8 14 -11 -14 -14 -13 -26 2 -7 10 -14 13 -14 8z"/>
<path d="M3952 328 c-20 -20 -15 -66 8 -73 20 -6 56 12 45 23 -2 3 -11 -1 -19
-7 -8 -7 -20 -10 -26 -6 -20 12 -10 25 20 25 18 0 30 5 30 13 0 16 -20 37 -35
37 -6 0 -16 -5 -23 -12z m29 -26 c-28 -4 -40 6 -21 18 9 6 20 4 29 -3 12 -10
11 -13 -8 -15z"/>
<path d="M4031 291 c2 -34 3 -38 6 -16 10 64 42 69 44 7 1 -20 3 -28 6 -17 2
11 6 30 9 43 7 35 28 21 35 -24 l7 -39 -2 45 -1 45 -52 1 -53 1 1 -46z"/>
<path d="M4161 276 c1 -34 4 -52 6 -40 3 16 10 20 28 16 19 -3 27 1 34 19 14
38 -1 64 -38 65 l-31 1 1 -61z m57 25 c5 -34 -16 -51 -33 -27 -10 14 -11 24
-4 38 13 24 33 18 37 -11z"/>
<path d="M4289 319 c-8 -16 -8 -28 0 -45 18 -41 71 -25 71 21 0 44 -50 61 -71
24z m46 -25 c0 -19 -5 -29 -15 -29 -16 0 -25 28 -16 51 10 25 31 10 31 -22z"/>
<path d="M4522 328 c-20 -20 -15 -66 8 -73 20 -6 56 12 45 23 -2 3 -11 -1 -19
-7 -8 -7 -20 -10 -26 -6 -20 12 -10 25 20 25 18 0 30 5 30 13 0 16 -20 37 -35
37 -6 0 -16 -5 -23 -12z m29 -26 c-28 -4 -40 6 -21 18 9 6 20 4 29 -3 12 -10
11 -13 -8 -15z"/>
<path d="M4752 328 c-20 -20 -15 -66 8 -73 20 -6 56 12 45 23 -2 3 -11 -1 -19
-7 -8 -7 -20 -10 -26 -6 -20 12 -10 25 20 25 18 0 30 5 30 13 0 16 -20 37 -35
37 -6 0 -16 -5 -23 -12z m29 -26 c-28 -4 -40 6 -21 18 9 6 20 4 29 -3 12 -10
11 -13 -8 -15z"/>
<path d="M4830 335 c0 -6 6 -17 12 -23 10 -10 10 -17 0 -33 -8 -12 -11 -23 -8
-26 3 -3 8 2 12 11 6 16 8 16 25 0 21 -19 27 -6 7 14 -10 10 -10 17 0 33 16
25 10 36 -8 14 -11 -14 -14 -13 -26 2 -7 10 -14 13 -14 8z"/>
<path d="M4962 328 c-30 -30 -2 -86 38 -73 15 5 20 15 20 40 0 41 -32 59 -58
33z m43 -34 c0 -32 -21 -39 -38 -12 -8 12 -7 21 3 32 19 24 35 14 35 -20z"/>
<path d="M5233 295 c0 -27 2 -38 4 -22 2 15 2 37 0 50 -2 12 -4 0 -4 -28z"/>
<path d="M5271 291 l2 -46 6 40 c4 26 11 40 21 40 10 0 17 -14 21 -40 l7 -40
-2 45 c-1 42 -3 45 -28 46 -27 1 -28 -1 -27 -45z"/>
<path d="M5457 334 c-4 -4 -7 -12 -7 -18 0 -6 5 -5 12 2 16 16 28 15 28 -2 0
-8 -10 -16 -22 -18 -15 -2 -23 -10 -23 -23 0 -16 7 -20 35 -21 l36 -1 -6 41
c-4 31 -10 42 -25 44 -12 2 -24 0 -28 -4z m33 -53 c0 -14 -18 -23 -30 -16 -6
4 -8 11 -5 16 8 12 35 12 35 0z"/>
<path d="M5633 333 c-7 -2 -13 -20 -13 -38 0 -25 5 -35 20 -40 26 -8 50 11 50
39 0 36 -25 53 -57 39z m41 -26 c8 -12 7 -21 -6 -33 -20 -20 -38 -11 -38 20 0
39 23 46 44 13z"/>
<path d="M5767 334 c-4 -4 -7 -12 -7 -18 0 -6 5 -5 12 2 16 16 28 15 28 -2 0
-8 -10 -16 -22 -18 -15 -2 -23 -10 -23 -23 0 -16 7 -20 35 -21 l36 -1 -6 41
c-4 31 -10 42 -25 44 -12 2 -24 0 -28 -4z m33 -53 c0 -14 -18 -23 -30 -16 -6
4 -8 11 -5 16 8 12 35 12 35 0z"/>
<path d="M5852 328 c-30 -30 -2 -86 38 -73 15 5 20 15 20 40 0 41 -32 59 -58
33z m43 -34 c0 -32 -21 -39 -38 -12 -8 12 -7 21 3 32 19 24 35 14 35 -20z"/>
<path d="M6102 328 c-20 -20 -15 -66 8 -73 20 -6 56 12 45 23 -2 3 -11 -1 -19
-7 -8 -7 -20 -10 -26 -6 -20 12 -10 25 20 25 18 0 30 5 30 13 0 16 -20 37 -35
37 -6 0 -16 -5 -23 -12z m29 -26 c-28 -4 -40 6 -21 18 9 6 20 4 29 -3 12 -10
11 -13 -8 -15z"/>
<path d="M6181 291 c1 -42 2 -43 8 -15 16 65 41 74 41 14 0 -22 5 -40 11 -40
6 0 9 17 7 43 -3 40 -5 42 -35 43 -33 1 -33 1 -32 -45z"/>
<path d="M6310 294 c0 -24 5 -44 10 -44 6 0 10 15 10 33 0 18 4 37 10 43 6 6
3 10 -10 11 -17 2 -20 -4 -20 -43z"/>
<path d="M6372 328 c-7 -7 -12 -21 -12 -33 0 -46 53 -62 71 -21 21 45 -26 87
-59 54z m46 -27 c5 -34 -16 -51 -33 -27 -10 14 -11 24 -4 38 13 24 33 18 37
-11z"/>
<path d="M6460 260 c0 -5 5 -10 11 -10 5 0 7 5 4 10 -3 6 -8 10 -11 10 -2 0
-4 -4 -4 -10z"/>
</g>
</svg>
