<?xml version="1.0" standalone="no"?>
<!DOCTYPE svg PUBLIC "-//W3C//DTD SVG 20010904//EN"
 "http://www.w3.org/TR/2001/REC-SVG-20010904/DTD/svg10.dtd">
<svg version="1.0" xmlns="http://www.w3.org/2000/svg"
 width="1024.000000pt" height="225.000000pt" viewBox="0 0 1024.000000 225.000000"
 preserveAspectRatio="xMidYMid meet">

<g transform="translate(0.000000,225.000000) scale(0.100000,-0.100000)"
fill="#000000" stroke="none">
<path d="M110 2025 l0 -115 86 0 c64 0 85 3 82 13 -3 7 -29 13 -71 15 l-67 3
0 34 0 34 62 3 c38 2 63 8 66 16 3 9 -14 12 -62 12 l-66 0 0 35 0 35 65 0 c51
0 65 3 65 15 0 12 -16 15 -80 15 l-80 0 0 -115z"/>
<path d="M1750 2125 c-21 -25 -1 -31 23 -7 17 18 18 22 5 22 -8 0 -21 -7 -28
-15z"/>
<path d="M2640 2025 c0 -96 3 -115 15 -115 12 0 15 19 15 115 0 96 -3 115 -15
115 -12 0 -15 -19 -15 -115z"/>
<path d="M910 2105 c0 -16 -6 -25 -15 -25 -8 0 -15 -4 -15 -10 0 -5 7 -10 15
-10 11 0 15 -17 17 -72 3 -67 5 -73 26 -76 25 -4 30 13 7 22 -11 4 -15 21 -15
66 0 47 3 60 15 60 8 0 15 5 15 10 0 6 -7 10 -15 10 -9 0 -15 9 -15 25 0 14
-4 25 -10 25 -5 0 -10 -11 -10 -25z"/>
<path d="M1337 2123 c-4 -3 -7 -14 -7 -24 0 -9 -6 -20 -12 -22 -10 -4 -10 -7
-1 -14 7 -5 13 -39 15 -78 3 -68 4 -70 31 -73 29 -4 37 12 12 22 -11 4 -15 21
-15 66 0 47 3 60 15 60 8 0 15 5 15 10 0 6 -7 10 -15 10 -9 0 -15 9 -15 25 0
24 -10 32 -23 18z"/>
<path d="M326 2064 c-19 -19 -21 -50 -3 -61 6 -4 27 -13 46 -18 40 -12 50 -30
23 -44 -13 -7 -26 -6 -47 5 -31 16 -41 13 -32 -10 14 -35 98 -31 121 7 16 25
-3 50 -50 63 -50 14 -60 44 -15 44 17 0 31 -4 31 -10 0 -5 7 -10 15 -10 22 0
19 27 -4 40 -29 15 -67 12 -85 -6z"/>
<path d="M486 2064 c-19 -19 -21 -50 -3 -61 6 -4 27 -13 46 -18 40 -12 50 -30
23 -44 -13 -7 -26 -6 -47 5 -31 16 -41 13 -32 -10 14 -35 98 -31 121 7 16 25
-3 50 -50 63 -50 14 -60 44 -15 44 17 0 31 -4 31 -10 0 -5 7 -10 15 -10 22 0
19 27 -4 40 -29 15 -67 12 -85 -6z"/>
<path d="M652 2057 c-48 -51 -18 -147 46 -147 32 0 72 25 72 46 0 19 -7 18
-37 -5 -26 -21 -50 -18 -70 7 -22 27 -15 32 53 32 l66 0 -6 28 c-15 60 -84 82
-124 39z m88 -27 c10 -19 8 -20 -40 -20 -48 0 -50 1 -40 20 7 13 21 20 40 20
19 0 33 -7 40 -20z"/>
<path d="M1005 2055 c-69 -68 15 -184 93 -129 12 8 22 22 22 30 0 18 -16 18
-23 0 -13 -33 -87 -17 -87 20 0 11 14 14 60 14 57 0 60 1 60 24 0 30 -43 66
-77 66 -13 0 -35 -11 -48 -25z m85 -9 c0 -2 3 -11 6 -20 5 -13 -2 -16 -40 -16
-47 0 -55 7 -34 28 11 11 68 18 68 8z"/>
<path d="M1160 2074 c0 -3 11 -21 24 -41 l25 -36 -30 -44 c-35 -51 -18 -60 22
-12 l26 32 19 -31 c10 -18 24 -32 31 -32 18 0 17 5 -13 49 l-26 40 26 38 c18
26 22 39 14 42 -7 2 -17 -4 -23 -13 -30 -51 -31 -51 -51 -18 -16 27 -44 44
-44 26z"/>
<path d="M1432 2057 c-15 -16 -22 -36 -22 -63 0 -72 68 -108 121 -65 34 28 34
104 0 132 -32 26 -73 24 -99 -4z m90 -32 c17 -39 0 -79 -36 -83 -37 -5 -48 8
-48 51 0 47 7 57 43 57 22 0 32 -7 41 -25z"/>
<path d="M1702 2057 c-48 -51 -18 -147 46 -147 32 0 72 25 72 46 0 19 -7 18
-37 -5 -26 -21 -50 -18 -70 7 -22 27 -15 32 53 32 l66 0 -6 28 c-15 60 -84 82
-124 39z m88 -27 c10 -19 8 -20 -40 -20 -48 0 -50 1 -40 20 7 13 21 20 40 20
19 0 33 -7 40 -20z"/>
<path d="M1959 1998 c37 -111 50 -112 90 -8 36 95 35 90 17 90 -9 0 -23 -26
-36 -66 -12 -36 -24 -63 -27 -61 -2 3 -12 31 -22 64 -11 36 -23 59 -34 61 -14
3 -12 -9 12 -80z"/>
<path d="M2125 2055 c-69 -68 15 -184 93 -129 12 8 22 22 22 30 0 18 -16 18
-23 0 -13 -33 -87 -17 -87 20 0 11 14 14 60 14 57 0 60 1 60 24 0 30 -43 66
-77 66 -13 0 -35 -11 -48 -25z m85 -9 c0 -2 3 -11 6 -20 5 -13 -2 -16 -40 -16
-47 0 -55 7 -34 28 11 11 68 18 68 8z"/>
<path d="M2290 1995 c0 -50 4 -85 10 -85 6 0 10 20 10 44 0 58 13 92 39 99 12
3 21 10 21 16 0 16 -21 13 -42 -6 -17 -15 -18 -15 -18 0 0 10 -4 17 -10 17 -6
0 -10 -35 -10 -85z"/>
<path d="M2380 2077 c0 -2 11 -37 25 -77 31 -90 32 -120 5 -127 -25 -7 -26
-33 -1 -33 26 0 34 12 75 124 40 111 41 116 23 116 -8 0 -22 -26 -32 -60 -10
-33 -21 -60 -25 -60 -4 0 -14 27 -23 60 -11 39 -22 60 -32 60 -8 0 -15 -1 -15
-3z"/>
<path d="M2729 2059 c-25 -25 -17 -37 15 -20 29 16 71 11 71 -9 0 -8 -15 -17
-39 -22 -50 -11 -66 -24 -66 -54 0 -33 41 -52 79 -38 18 7 32 7 43 0 21 -13
36 0 20 16 -7 7 -12 38 -12 70 0 46 -4 59 -19 68 -31 16 -69 12 -92 -11z m89
-86 c-2 -10 -15 -24 -30 -32 -21 -12 -29 -13 -41 -2 -29 24 -5 47 51 50 17 1
23 -4 20 -16z"/>
<path d="M2890 1995 c0 -69 3 -85 15 -85 12 0 15 13 15 59 0 53 3 61 27 79 31
22 24 44 -7 24 -12 -7 -20 -8 -20 -2 0 5 -7 10 -15 10 -12 0 -15 -16 -15 -85z"/>
<path d="M3011 2054 c-12 -15 -21 -41 -21 -59 0 -61 63 -108 98 -73 9 9 12 8
12 -8 0 -40 -45 -59 -70 -29 -16 19 -30 19 -30 0 0 -36 78 -47 110 -15 17 17
20 33 20 115 0 57 -4 95 -10 95 -5 0 -10 -5 -10 -10 0 -7 -6 -7 -19 0 -32 17
-58 12 -80 -16z m83 -20 c19 -48 2 -94 -34 -94 -29 0 -40 15 -40 55 0 40 11
55 40 55 16 0 30 -7 34 -16z"/>
<path d="M3195 2055 c-36 -35 -35 -96 1 -124 15 -12 36 -21 48 -21 27 0 66 27
66 46 0 19 -7 18 -37 -5 -29 -24 -66 -15 -71 18 -3 19 1 21 57 21 55 0 61 2
61 20 0 29 -44 70 -75 70 -14 0 -37 -11 -50 -25z m83 -17 c21 -21 13 -28 -33
-28 -48 0 -48 0 -39 24 7 19 55 21 72 4z"/>
<path d="M3360 1925 c0 -8 7 -15 15 -15 8 0 15 7 15 15 0 8 -7 15 -15 15 -8 0
-15 -7 -15 -15z"/>
<path d="M90 1400 l0 -60 48 2 c43 1 44 2 10 5 -32 4 -38 8 -38 28 0 19 6 24
33 28 l32 4 -32 1 c-25 2 -33 7 -33 21 0 15 8 21 38 24 34 3 33 4 -10 5 l-48
2 0 -60z"/>
<path d="M1493 1454 c-18 -8 -27 -68 -14 -93 15 -27 47 -27 61 0 14 24 -2 49
-31 49 -11 0 -19 6 -19 14 0 22 19 29 37 14 14 -11 15 -11 11 2 -5 16 -25 22
-45 14z m34 -70 c8 -21 -13 -42 -28 -27 -13 13 -5 43 11 43 6 0 13 -7 17 -16z"/>
<path d="M1900 1400 c0 -33 4 -60 10 -60 6 0 10 27 10 60 0 33 -4 60 -10 60
-6 0 -10 -27 -10 -60z"/>
<path d="M488 1439 c-7 -20 6 -92 17 -96 8 -2 11 41 6 100 -1 11 -19 8 -23 -4z"/>
<path d="M702 1434 c-7 -8 -8 -14 -2 -14 5 0 10 -18 10 -40 0 -22 3 -40 8 -40
7 0 8 98 0 105 -1 2 -9 -3 -16 -11z"/>
<path d="M1410 1435 c-8 -9 -9 -15 -2 -15 6 0 13 -19 15 -42 3 -37 4 -35 5 15
1 31 0 57 -2 57 -2 0 -9 -7 -16 -15z"/>
<path d="M200 1415 c-12 -14 -11 -18 1 -26 8 -5 20 -9 27 -9 6 0 12 -7 12 -15
0 -18 -27 -20 -33 -2 -2 6 -8 9 -12 5 -11 -10 4 -28 24 -28 18 0 41 18 41 32
0 5 -11 13 -25 18 -14 5 -25 14 -25 20 0 14 13 13 29 -2 11 -11 13 -10 9 2 -7
21 -32 24 -48 5z"/>
<path d="M280 1415 c-12 -14 -11 -18 1 -26 8 -5 20 -9 27 -9 6 0 12 -7 12 -15
0 -18 -27 -20 -33 -2 -2 6 -8 9 -12 5 -11 -10 4 -28 24 -28 18 0 41 18 41 32
0 5 -11 13 -25 18 -14 5 -25 14 -25 20 0 14 13 13 29 -2 11 -11 13 -10 9 2 -7
21 -32 24 -48 5z"/>
<path d="M358 1404 c-9 -18 -9 -30 -1 -42 13 -21 55 -22 61 -2 4 13 3 13 -11
2 -9 -8 -21 -11 -27 -7 -20 12 -10 25 20 25 33 0 35 3 20 31 -15 27 -48 24
-62 -7z m50 -2 c2 -7 -6 -12 -17 -12 -21 0 -27 11 -14 24 9 9 26 2 31 -12z"/>
<path d="M542 1418 c-16 -16 -15 -53 3 -68 18 -15 47 -10 53 10 5 13 3 13 -12
1 -15 -12 -19 -12 -34 2 -15 16 -14 17 17 17 28 0 32 3 29 23 -3 25 -36 35
-56 15z m46 -16 c2 -7 -7 -12 -23 -12 -24 0 -26 2 -15 15 14 17 31 16 38 -3z"/>
<path d="M631 1407 c10 -21 10 -30 1 -39 -20 -20 -13 -32 7 -14 17 16 19 16
25 0 4 -9 9 -14 12 -11 3 3 0 15 -6 27 -9 16 -9 25 1 36 6 8 9 17 6 21 -4 3
-9 -2 -13 -11 -6 -16 -8 -16 -26 1 -19 17 -19 17 -7 -10z"/>
<path d="M749 1409 c-8 -16 -8 -28 0 -45 18 -41 71 -25 71 21 0 44 -50 61 -71
24z m46 -25 c0 -19 -5 -29 -15 -29 -16 0 -25 28 -16 51 10 25 31 10 31 -22z"/>
<path d="M881 1366 c1 -34 4 -51 6 -38 2 12 9 20 14 17 5 -4 18 -3 29 0 15 5
20 15 20 41 0 19 -3 35 -7 36 -5 0 -20 2 -35 3 -28 2 -28 2 -27 -59z m53 6
c-13 -20 -25 -20 -38 1 -7 10 -5 21 4 32 12 15 15 15 29 0 12 -12 13 -19 5
-33z"/>
<path d="M969 1409 c-8 -16 -8 -28 0 -45 18 -41 71 -25 71 21 0 44 -50 61 -71
24z m46 -25 c0 -19 -5 -29 -15 -29 -16 0 -25 28 -16 51 10 25 31 10 31 -22z"/>
<path d="M1067 1423 c-15 -14 -6 -34 20 -44 20 -7 23 -13 15 -21 -9 -9 -15 -9
-24 0 -18 18 -33 15 -18 -3 17 -20 54 -15 58 7 2 12 -6 21 -23 28 -15 6 -23
15 -20 21 4 6 13 8 21 5 8 -3 14 -1 14 4 0 11 -33 14 -43 3z"/>
<path d="M1147 1423 c-15 -14 -6 -34 20 -44 20 -7 23 -13 15 -21 -9 -9 -15 -9
-24 0 -18 18 -33 15 -18 -3 17 -20 54 -15 58 7 2 12 -6 21 -23 28 -15 6 -23
15 -20 21 4 6 13 8 21 5 8 -3 14 -1 14 4 0 11 -33 14 -43 3z"/>
<path d="M1224 1390 c1 -41 3 -45 29 -48 26 -3 27 -2 26 45 l-2 48 -6 -40 c-4
-26 -11 -40 -21 -40 -10 0 -17 14 -21 40 l-7 40 2 -45z"/>
<path d="M1313 1385 c0 -27 2 -38 4 -22 2 15 2 37 0 50 -2 12 -4 0 -4 -28z"/>
<path d="M1611 1365 c1 -33 4 -50 6 -38 3 14 9 20 19 16 20 -7 44 15 44 42 0
28 -19 45 -48 42 -20 -1 -22 -6 -21 -62z m53 32 c8 -12 7 -21 -6 -33 -20 -20
-38 -11 -38 20 0 39 23 46 44 13z"/>
<path d="M1703 1385 c0 -27 2 -38 4 -22 2 15 2 37 0 50 -2 12 -4 0 -4 -28z"/>
<path d="M1741 1407 c10 -21 10 -30 1 -39 -20 -20 -13 -32 7 -14 17 16 19 16
25 0 4 -9 9 -14 12 -11 3 3 0 15 -6 27 -9 16 -9 25 1 36 6 8 9 17 6 21 -4 3
-9 -2 -13 -11 -6 -16 -8 -16 -26 1 -19 17 -19 17 -7 -10z"/>
<path d="M1822 1418 c-16 -16 -15 -53 3 -68 18 -15 47 -10 53 10 5 13 3 13
-12 1 -15 -12 -19 -12 -34 2 -15 16 -14 17 17 17 28 0 32 3 29 23 -3 25 -36
35 -56 15z m46 -16 c2 -7 -7 -12 -23 -12 -24 0 -26 2 -15 15 14 17 31 16 38
-3z"/>
<path d="M1947 1423 c-15 -14 -6 -34 20 -44 20 -7 23 -13 15 -21 -9 -9 -15 -9
-24 0 -18 18 -33 15 -18 -3 17 -20 54 -15 58 7 2 12 -6 21 -23 28 -15 6 -23
15 -20 21 4 6 13 8 21 5 8 -3 14 -1 14 4 0 11 -33 14 -43 3z"/>
<path d="M2020 1350 c0 -5 5 -10 10 -10 6 0 10 5 10 10 0 6 -4 10 -10 10 -5 0
-10 -4 -10 -10z"/>
<path d="M2164 825 c-25 -39 -7 -43 29 -7 30 30 30 32 10 32 -13 0 -30 -11
-39 -25z"/>
<path d="M120 695 l0 -145 105 0 c87 0 105 3 105 15 0 12 -17 15 -90 15 l-90
0 0 50 0 50 80 0 c64 0 80 3 80 15 0 12 -16 15 -81 15 l-80 0 3 48 3 47 83 3
c64 2 82 6 82 17 0 12 -19 15 -100 15 l-100 0 0 -145z"/>
<path d="M2439 811 c-34 -35 -39 -71 -9 -71 13 0 20 7 20 18 0 53 79 66 101
18 16 -33 -1 -59 -65 -100 -61 -39 -66 -45 -76 -92 l-8 -34 94 0 c77 0 94 3
94 15 0 12 -14 15 -70 15 -51 0 -70 4 -70 13 0 17 36 50 77 71 42 21 63 53 63
94 0 77 -93 110 -151 53z"/>
<path d="M3640 820 c0 -11 7 -20 15 -20 8 0 15 9 15 20 0 11 -7 20 -15 20 -8
0 -15 -9 -15 -20z"/>
<path d="M6440 695 c0 -122 2 -145 15 -145 13 0 15 23 15 145 0 122 -2 145
-15 145 -13 0 -15 -23 -15 -145z"/>
<path d="M2766 822 c-2 -4 -8 -40 -11 -80 -6 -61 -5 -72 7 -72 9 0 21 7 28 15
17 21 63 19 83 -3 10 -10 17 -33 17 -50 0 -59 -83 -83 -110 -32 -11 20 -40 28
-40 11 0 -35 46 -71 90 -71 41 0 79 29 90 68 21 70 -25 128 -95 120 -36 -4
-36 -4 -33 31 l3 36 58 3 c42 2 57 7 57 17 0 12 -15 15 -69 15 -39 0 -72 -3
-75 -8z"/>
<path d="M1110 790 c0 -20 -5 -30 -15 -30 -8 0 -15 -7 -15 -15 0 -8 7 -15 15
-15 12 0 15 -16 15 -83 0 -89 8 -107 47 -107 28 0 31 26 3 33 -18 5 -20 14
-20 81 0 69 2 76 20 76 11 0 20 7 20 15 0 8 -9 15 -20 15 -16 0 -20 7 -20 30
0 20 -5 30 -15 30 -10 0 -15 -10 -15 -30z"/>
<path d="M1650 790 c0 -20 -5 -30 -15 -30 -8 0 -15 -7 -15 -15 0 -8 7 -15 15
-15 11 0 15 -19 17 -92 l3 -93 28 -3 c19 -2 27 1 27 12 0 9 -7 16 -15 16 -12
0 -15 16 -15 80 0 64 3 80 15 80 8 0 15 7 15 15 0 8 -7 15 -15 15 -10 0 -15
10 -15 30 0 20 -5 30 -15 30 -10 0 -15 -10 -15 -30z"/>
<path d="M384 745 c-19 -19 -23 -31 -18 -48 9 -31 15 -36 70 -55 52 -19 65
-45 33 -65 -21 -13 -69 -1 -69 18 0 8 -9 15 -20 15 -11 0 -20 -7 -20 -15 0
-29 38 -55 80 -55 46 0 90 34 90 69 0 26 -41 57 -85 65 -40 8 -54 28 -35 51
17 21 47 19 67 -5 10 -11 23 -20 30 -20 20 0 16 27 -7 50 -29 29 -84 27 -116
-5z"/>
<path d="M584 745 c-19 -19 -23 -31 -18 -48 9 -31 15 -36 70 -55 52 -19 65
-45 33 -65 -21 -13 -69 -1 -69 18 0 8 -9 15 -20 15 -11 0 -20 -7 -20 -15 0
-29 38 -55 80 -55 46 0 90 34 90 69 0 26 -41 57 -85 65 -40 8 -54 28 -35 51
17 21 47 19 67 -5 10 -11 23 -20 30 -20 20 0 16 27 -7 50 -29 29 -84 27 -116
-5z"/>
<path d="M813 758 c-26 -12 -53 -65 -53 -102 0 -38 25 -93 48 -105 46 -25 132
5 132 45 0 20 -24 17 -45 -6 -10 -11 -25 -20 -34 -20 -26 0 -61 29 -61 51 0
17 7 19 75 19 74 0 75 0 75 25 0 34 -25 82 -49 95 -24 13 -59 12 -88 -2z m79
-35 c10 -9 18 -24 18 -35 0 -15 -8 -18 -55 -18 -61 0 -71 14 -35 50 24 24 47
25 72 3z"/>
<path d="M1239 741 c-25 -26 -29 -37 -29 -86 0 -49 4 -60 29 -86 31 -31 67
-37 104 -17 23 12 46 37 47 51 0 14 -30 7 -50 -13 -11 -11 -29 -20 -40 -20
-23 0 -60 33 -60 55 0 12 15 15 75 15 l75 0 0 39 c0 32 -6 44 -31 65 -41 35
-83 34 -120 -3z m101 -21 c37 -37 26 -50 -40 -50 -33 0 -60 4 -60 9 0 18 42
61 61 61 10 0 28 -9 39 -20z"/>
<path d="M1769 741 c-25 -26 -29 -37 -29 -86 0 -49 4 -60 29 -86 31 -31 64
-36 104 -18 33 15 52 53 52 104 0 51 -19 89 -52 104 -40 18 -73 13 -104 -18z
m101 -21 c43 -43 16 -150 -38 -150 -32 0 -57 38 -57 85 0 73 52 108 95 65z"/>
<path d="M2117 749 c-44 -34 -57 -125 -24 -170 17 -23 51 -39 82 -39 33 0 100
62 73 68 -9 2 -26 -6 -37 -17 -26 -26 -55 -27 -81 -1 -39 39 -27 50 55 50 l75
0 0 36 c0 26 -8 43 -29 65 -35 35 -77 38 -114 8z m80 -17 c6 -4 16 -20 22 -35
l11 -27 -60 0 c-66 0 -77 13 -40 50 21 21 46 25 67 12z"/>
<path d="M3142 754 c-12 -8 -22 -10 -22 -5 0 6 -7 11 -15 11 -12 0 -15 -18
-15 -105 0 -87 3 -105 15 -105 12 0 15 15 15 78 0 64 4 82 18 95 47 43 72 10
72 -97 0 -61 3 -76 15 -76 12 0 15 15 15 78 0 64 4 82 18 95 10 10 25 17 33
17 30 0 39 -24 39 -107 0 -67 3 -83 15 -83 22 0 22 182 -1 204 -20 20 -63 21
-91 1 -18 -13 -22 -13 -33 0 -16 19 -50 19 -78 -1z"/>
<path d="M3442 754 c-24 -16 -30 -54 -9 -54 7 0 18 9 25 20 15 24 54 26 76 5
20 -20 10 -44 -20 -50 -13 -3 -36 -8 -51 -11 -41 -8 -53 -22 -53 -60 0 -55 67
-84 117 -49 19 13 22 13 27 0 7 -20 46 -19 46 0 0 8 -4 15 -10 15 -6 0 -10 33
-10 80 0 67 -3 83 -20 100 -24 24 -86 27 -118 4z m108 -124 c0 -47 -72 -79
-101 -44 -24 29 14 60 79 63 16 1 22 -5 22 -19z"/>
<path d="M3763 758 c-62 -30 -60 -178 3 -207 41 -18 74 -13 105 18 25 26 29
37 29 86 0 49 -4 60 -29 86 -31 31 -68 37 -108 17z m73 -26 c58 -38 36 -161
-28 -162 -33 0 -58 37 -58 85 0 64 45 104 86 77z"/>
<path d="M4000 750 c-16 -16 -20 -17 -20 -5 0 8 -7 15 -15 15 -12 0 -15 -18
-15 -105 0 -87 3 -105 15 -105 11 0 15 12 15 49 0 83 10 113 42 125 16 6 28
18 28 28 0 24 -25 23 -50 -2z"/>
<path d="M4214 747 c-23 -20 -28 -34 -32 -85 -4 -58 -3 -63 26 -92 31 -30 84
-41 97 -20 15 24 25 6 25 -41 0 -43 3 -50 18 -47 15 3 17 20 20 151 2 126 0
147 -13 147 -8 0 -15 -5 -15 -11 0 -7 -10 -5 -25 5 -34 22 -69 20 -101 -7z
m96 -27 c43 -43 16 -150 -38 -150 -32 0 -55 36 -55 85 0 74 49 109 93 65z"/>
<path d="M4674 755 c-53 -36 -58 -150 -9 -192 36 -31 88 -31 120 2 14 13 25
29 25 35 0 17 -26 11 -45 -10 -32 -36 -80 -20 -98 33 -6 15 2 17 73 17 74 0
80 2 80 20 0 83 -85 138 -146 95z m86 -35 c36 -36 26 -50 -35 -50 -60 0 -71
15 -38 52 21 24 48 23 73 -2z"/>
<path d="M4993 746 c-25 -22 -28 -30 -28 -91 0 -61 3 -69 28 -91 55 -47 127
-25 148 45 35 116 -65 208 -148 137z m97 -26 c43 -43 16 -150 -38 -150 -32 0
-54 34 -54 85 0 75 48 109 92 65z"/>
<path d="M5375 758 c-11 -6 -23 -16 -27 -22 -5 -7 -8 -4 -8 7 0 9 -7 17 -15
17 -12 0 -15 -18 -15 -105 0 -87 3 -105 15 -105 12 0 15 14 15 68 0 77 16 116
48 120 42 6 52 -14 52 -104 0 -68 3 -84 15 -84 12 0 15 17 15 93 0 78 -3 97
-18 110 -21 20 -49 21 -77 5z"/>
<path d="M5549 741 c-25 -26 -29 -37 -29 -86 0 -49 4 -60 29 -86 31 -31 64
-36 104 -18 33 15 52 53 52 104 0 51 -19 89 -52 104 -40 18 -73 13 -104 -18z
m101 -21 c43 -43 16 -150 -38 -150 -32 0 -57 38 -57 85 0 73 52 108 95 65z"/>
<path d="M5802 748 c-19 -19 -22 -20 -22 -5 0 9 -7 17 -15 17 -12 0 -15 -18
-15 -105 0 -98 1 -105 20 -105 18 0 20 7 20 74 0 76 13 106 46 106 8 0 14 9
14 20 0 26 -20 25 -48 -2z"/>
<path d="M5942 754 c-12 -8 -22 -10 -22 -5 0 6 -7 11 -15 11 -12 0 -15 -18
-15 -105 0 -87 3 -105 15 -105 12 0 15 15 15 78 0 64 4 82 18 95 47 43 72 10
72 -97 0 -61 3 -76 15 -76 12 0 15 15 15 78 0 64 4 82 18 95 10 10 25 17 33
17 30 0 39 -24 39 -107 0 -67 3 -83 15 -83 22 0 22 182 -1 204 -20 20 -63 21
-91 1 -18 -13 -22 -13 -33 0 -16 19 -50 19 -78 -1z"/>
<path d="M6242 754 c-24 -16 -30 -54 -9 -54 7 0 18 9 25 20 15 24 54 26 76 5
20 -20 10 -44 -20 -50 -13 -3 -36 -8 -51 -11 -41 -8 -53 -22 -53 -60 0 -55 67
-84 117 -49 19 13 22 13 27 0 7 -20 46 -19 46 0 0 8 -4 15 -10 15 -6 0 -10 33
-10 80 0 67 -3 83 -20 100 -24 24 -86 27 -118 4z m108 -124 c0 -47 -72 -79
-101 -44 -24 29 14 60 79 63 16 1 22 -5 22 -19z"/>
<path d="M1430 754 c0 -3 14 -25 30 -49 17 -24 30 -46 30 -49 0 -3 -16 -28
-36 -56 -32 -45 -34 -50 -16 -50 12 0 29 14 42 35 12 19 25 35 30 35 5 0 18
-16 30 -35 13 -20 30 -35 41 -35 17 0 15 7 -17 55 l-36 54 37 51 c33 44 34 50
17 50 -12 0 -29 -14 -42 -35 -12 -19 -25 -35 -28 -35 -4 0 -17 16 -30 35 -19
30 -52 48 -52 29z"/>
<path d="M3640 655 c0 -87 3 -105 15 -105 12 0 15 18 15 105 0 87 -3 105 -15
105 -12 0 -15 -18 -15 -105z"/>
<path d="M4420 667 c0 -78 3 -97 18 -110 23 -21 61 -22 90 -1 12 8 22 10 22 5
0 -6 7 -11 15 -11 12 0 15 18 15 105 0 87 -3 105 -15 105 -12 0 -15 -15 -15
-73 0 -81 -16 -117 -54 -117 -38 0 -46 19 -46 107 0 67 -3 83 -15 83 -12 0
-15 -17 -15 -93z"/>
<path d="M2650 570 c0 -13 7 -20 20 -20 13 0 20 7 20 20 0 13 -7 20 -20 20
-13 0 -20 -7 -20 -20z"/>
<path d="M6530 570 c0 -15 7 -20 25 -20 18 0 25 5 25 20 0 15 -7 20 -25 20
-18 0 -25 -5 -25 -20z"/>
</g>
</svg>
